<?xml version="1.0" encoding="utf-8"?>
<!-- Generator: Adobe Illustrator 23.0.2, SVG Export Plug-In . SVG Version: 6.00 Build 0)  -->
<svg version="1.1" id="圖層_1" xmlns="http://www.w3.org/2000/svg" xmlns:xlink="http://www.w3.org/1999/xlink" x="0px" y="0px"
	 viewBox="0 0 390 390" style="enable-background:new 0 0 390 390;" xml:space="preserve">
<style type="text/css">
	.st0{clip-path:url(#SVGID_2_);}
</style>
<g>
	<defs>
		<rect id="SVGID_1_" x="0" y="0" width="390" height="390"/>
	</defs>
	<clipPath id="SVGID_2_">
		<use xlink:href="#SVGID_1_"  style="overflow:visible;"/>
	</clipPath>
	<g class="st0">
		<path d="M92,147.2c0,2,0.3,3.5,0.9,4.6c0.8,0.9,2.6,1.4,5.5,1.4h22.3c2.9,0,6.2-0.2,9.9-0.5c3.8-0.5,7.8-1.6,12-3.5
			c4.3-2,8.6-5,12.9-9c4.5-4.1,8.7-9.9,12.7-17.3h3.7l-6.7,40.1c-6.5-0.3-14.9-0.5-25.3-0.7c-10.4-0.2-23.3-0.2-38.7-0.2
			s-28,0.1-38,0.2c-9.8,0.2-17.2,0.4-22.1,0.7v-5.5l15.7-3c4-0.5,6-2.1,6-4.8V33.8c0-2.9-0.5-4.8-1.6-5.5c-1.1-0.8-2.5-1.4-4.4-1.8
			l-12.4-3v-6c8.3,0.5,20.7,0.7,37.3,0.7s26.9-0.2,30.9-0.7v6l-14.5,3c-2,0.5-3.5,1.1-4.6,1.8c-0.9,0.6-1.4,2.5-1.4,5.5V147.2z
			 M281.4,165.4c-11.4,0-22-1.7-32-5.1c-9.8-3.5-18.4-8.4-25.8-14.7c-7.4-6.5-13.2-14.2-17.5-23.3c-4.1-9.1-6.2-19.1-6.2-30.2
			c0-11.4,2.1-21.7,6.5-31.1c4.5-9.4,10.4-17.4,18-24c7.5-6.6,16.3-11.7,26.3-15.2c10.1-3.7,20.9-5.5,32.3-5.5
			c11.5,0,22.1,1.9,31.8,5.8c9.8,3.8,18.4,9.1,25.6,15.9c7.2,6.6,12.8,14.5,16.8,23.7c4.1,9.1,6.2,19,6.2,29.7c0,10.8-2,20.7-6,29.7
			c-3.8,9.1-9.4,16.9-16.6,23.5c-7.1,6.5-15.7,11.5-25.8,15.2C304.8,163.6,293.7,165.4,281.4,165.4z M233.2,93.3
			c0,7.8,1.1,15.6,3.2,23.3c2.3,7.5,5.6,14.3,9.9,20.3s9.4,10.8,15.4,14.5c6.1,3.7,13.1,5.5,21,5.5c15.2,0,26.9-5.4,35-16.1
			c8.3-10.8,12.4-26.7,12.4-47.9c0-9.1-1-17.7-3-25.8s-5.1-15.2-9.2-21.2c-4-6.1-9.1-11-15.2-14.5c-6.1-3.7-13.3-5.5-21.4-5.5
			c-8.3,0-15.5,1.9-21.7,5.8c-6,3.8-11,8.9-15,15.2c-3.8,6.3-6.8,13.5-8.8,21.7C234.2,76.5,233.2,84.8,233.2,93.3z"/>
		<path d="M191.1,304l-10.6,1.6c-2.6,0.5-4.5,1.2-5.5,2.1c-0.9,0.8-1.4,2.2-1.4,4.4v25.6c0,4.5-0.2,7.9-0.5,10.4
			c-0.2,2.3-0.7,4.2-1.6,5.8c-0.8,1.4-2.1,2.5-3.9,3.5c-1.8,0.8-4.4,1.8-7.6,3c-3.1,1.2-6.6,2.3-10.6,3.2c-3.8,0.9-8,1.8-12.4,2.5
			c-4.5,0.6-9.1,1.1-13.8,1.4c-4.6,0.3-9.1,0.5-13.4,0.5c-11.4,0-22.2-1.5-32.5-4.6c-10.3-3.2-19.3-7.9-27-14.1
			c-7.7-6.1-13.8-13.7-18.4-22.6c-4.5-9.1-6.7-19.4-6.7-31.1c0-13.5,2.5-25.1,7.4-34.8c5.1-9.8,11.8-17.9,20-24.2
			c8.3-6.5,17.9-11.1,28.8-14.1c10.9-3.1,22.3-4.6,34.3-4.6c20.4,0,37.5,3.7,51.1,11.1l1.8,38.7l-5.5,0.7c-2.3-5.7-5-11-8.1-15.9
			c-2.9-5.1-6.3-9.4-10.1-13.1c-3.8-3.8-8.3-6.8-13.4-9c-4.9-2.2-10.4-3.2-16.6-3.2c-9.7,0-18.1,1.6-25.3,4.8
			c-7.1,3.2-12.9,7.8-17.5,13.6c-4.6,5.7-8.1,12.6-10.4,20.7c-2.3,8-3.5,16.8-3.5,26.5c0,9.1,1.2,17.7,3.7,25.8
			c2.5,8,6.1,15.1,10.8,21.2c4.9,6,10.9,10.8,18,14.3c7.2,3.5,15.5,5.3,24.9,5.3c5.7,0,10.4-0.6,14.1-1.8c3.8-1.2,6.8-2.9,9-5.1
			c2.3-2.2,3.8-4.6,4.6-7.4c0.9-2.8,1.4-5.7,1.4-8.8v-24.2c0-2.5-0.6-4.1-1.8-4.8c-1.1-0.8-2.8-1.3-5.3-1.6l-16.6-1.6v-7.1
			c12,0.6,23.7,0.9,35,0.9c11.4,0,23-0.3,35-0.9V304z M284.5,367.4c-11.4,0-22-1.7-32-5.1c-9.8-3.5-18.4-8.4-25.8-14.7
			c-7.4-6.5-13.2-14.2-17.5-23.3c-4.1-9.1-6.2-19.1-6.2-30.2c0-11.4,2.1-21.7,6.5-31.1c4.5-9.4,10.4-17.4,18-24
			c7.5-6.6,16.3-11.7,26.3-15.2c10.1-3.7,20.9-5.5,32.3-5.5c11.5,0,22.1,1.9,31.8,5.8c9.8,3.8,18.4,9.1,25.6,15.9
			c7.2,6.6,12.8,14.5,16.8,23.7c4.1,9.1,6.2,19,6.2,29.7c0,10.8-2,20.7-6,29.7c-3.8,9.1-9.4,16.9-16.6,23.5
			c-7.1,6.5-15.7,11.5-25.8,15.2C307.9,365.6,296.8,367.4,284.5,367.4z M236.4,295.3c0,7.8,1.1,15.6,3.2,23.3
			c2.3,7.5,5.6,14.3,9.9,20.3c4.3,6,9.4,10.8,15.4,14.5c6.1,3.7,13.1,5.5,21,5.5c15.2,0,26.9-5.4,35-16.1
			c8.3-10.8,12.4-26.7,12.4-47.9c0-9.1-1-17.7-3-25.8c-2-8.1-5.1-15.2-9.2-21.2c-4-6.1-9.1-11-15.2-14.5c-6.1-3.7-13.3-5.5-21.4-5.5
			c-8.3,0-15.5,1.9-21.7,5.8c-6,3.8-11,8.9-15,15.2c-3.8,6.3-6.8,13.5-8.8,21.7C237.3,278.5,236.4,286.8,236.4,295.3z"/>
	</g>
</g>
</svg>
